<svg xmlns="http://www.w3.org/2000/svg" viewBox="0 0 1100 620" font-family="-apple-system, BlinkMacSystemFont, 'Segoe UI', system-ui, sans-serif">
  <rect width="1100" height="620" fill="#ffffff"/>

  <text x="550" y="42" text-anchor="middle" font-size="20" font-weight="600" fill="#0a0a0a">WIGTN Coding — 3-Stage Pipeline &#215; 3-Tier Agents</text>

  <g transform="translate(310,72)">
    <rect width="12" height="12" rx="3" fill="#6366f1"/>
    <text x="20" y="11" font-size="12" fill="#525252">Coordinators</text>
    <rect x="135" width="12" height="12" rx="3" fill="#10b981"/>
    <text x="155" y="11" font-size="12" fill="#525252">Developers</text>
    <rect x="270" width="12" height="12" rx="3" fill="#f59e0b"/>
    <text x="290" y="11" font-size="12" fill="#525252">Quality</text>
  </g>

  <g transform="translate(60,120)">
    <rect width="290" height="320" rx="14" fill="#fafafa" stroke="#d4d4d4" stroke-width="1.5"/>
    <text x="20" y="32" font-size="11" font-weight="600" fill="#a3a3a3" letter-spacing="2">STAGE 1 &#183; PLAN</text>
    <text x="20" y="62" font-size="22" font-weight="700" fill="#0a0a0a">/prd</text>
    <text x="20" y="84" font-size="12" fill="#737373">Idea &#8594; PRD + PLAN.md</text>

    <g transform="translate(20,104)">
      <rect width="250" height="42" rx="8" fill="#ffffff" stroke="#6366f1" stroke-width="1.5"/>
      <text x="14" y="26" font-size="13" font-weight="500" fill="#0a0a0a">parallel-digging-coordinator</text>

      <rect y="54" width="250" height="42" rx="8" fill="#ffffff" stroke="#f59e0b" stroke-width="1.5"/>
      <text x="14" y="80" font-size="13" font-weight="500" fill="#0a0a0a">prd-reviewer</text>
    </g>

    <g transform="translate(20,236)">
      <text x="0" y="0" font-size="12" font-weight="500" fill="#525252">4-category gap analysis</text>
      <text x="0" y="20" font-size="11" fill="#737373">Completeness &#183; Feasibility</text>
      <text x="0" y="38" font-size="11" fill="#737373">Security &#183; Consistency</text>
    </g>
  </g>

  <g transform="translate(355,275)">
    <line x1="0" y1="0" x2="34" y2="0" stroke="#a3a3a3" stroke-width="1.8"/>
    <polygon points="34,0 26,-5 26,5" fill="#a3a3a3"/>
  </g>

  <g transform="translate(400,120)">
    <rect width="290" height="320" rx="14" fill="#fafafa" stroke="#d4d4d4" stroke-width="1.5"/>
    <text x="20" y="32" font-size="11" font-weight="600" fill="#a3a3a3" letter-spacing="2">STAGE 2 &#183; BUILD</text>
    <text x="20" y="62" font-size="22" font-weight="700" fill="#0a0a0a">/implement</text>
    <text x="20" y="84" font-size="12" fill="#737373">PRD &#8594; Code (4 teams parallel)</text>

    <g transform="translate(20,104)">
      <rect width="250" height="34" rx="8" fill="#ffffff" stroke="#6366f1" stroke-width="1.5"/>
      <text x="14" y="22" font-size="13" font-weight="500" fill="#0a0a0a">architecture-decision</text>

      <rect y="44" width="250" height="34" rx="8" fill="#ffffff" stroke="#f59e0b" stroke-width="1.5"/>
      <text x="14" y="66" font-size="13" font-weight="500" fill="#0a0a0a">design-discovery (FE only)</text>

      <rect y="88" width="250" height="34" rx="8" fill="#ffffff" stroke="#6366f1" stroke-width="1.5"/>
      <text x="14" y="110" font-size="13" font-weight="500" fill="#0a0a0a">team-build-coordinator</text>
    </g>

    <text x="32" y="248" font-size="11" fill="#737373" font-style="italic">&#8627; dispatch 4 teams</text>

    <g transform="translate(20,256)">
      <rect width="120" height="28" rx="6" fill="#ffffff" stroke="#10b981" stroke-width="1.5"/>
      <text x="60" y="19" text-anchor="middle" font-size="11" fill="#0a0a0a">frontend-developer</text>

      <rect x="130" width="120" height="28" rx="6" fill="#ffffff" stroke="#10b981" stroke-width="1.5"/>
      <text x="190" y="19" text-anchor="middle" font-size="11" fill="#0a0a0a">backend-architect</text>

      <rect y="36" width="120" height="28" rx="6" fill="#ffffff" stroke="#10b981" stroke-width="1.5"/>
      <text x="60" y="55" text-anchor="middle" font-size="11" fill="#0a0a0a">mobile-developer</text>

      <rect x="130" y="36" width="120" height="28" rx="6" fill="#ffffff" stroke="#10b981" stroke-width="1.5"/>
      <text x="190" y="55" text-anchor="middle" font-size="11" fill="#0a0a0a">ai-agent</text>
    </g>
  </g>

  <g transform="translate(695,275)">
    <line x1="0" y1="0" x2="34" y2="0" stroke="#a3a3a3" stroke-width="1.8"/>
    <polygon points="34,0 26,-5 26,5" fill="#a3a3a3"/>
  </g>

  <g transform="translate(740,120)">
    <rect width="290" height="320" rx="14" fill="#fafafa" stroke="#d4d4d4" stroke-width="1.5"/>
    <text x="20" y="32" font-size="11" font-weight="600" fill="#a3a3a3" letter-spacing="2">STAGE 3 &#183; SHIP</text>
    <text x="20" y="62" font-size="22" font-weight="700" fill="#0a0a0a">/auto-commit</text>
    <text x="20" y="84" font-size="12" fill="#737373">Code &#8594; 100-pt gate &#8594; commit</text>

    <g transform="translate(20,104)">
      <rect width="250" height="34" rx="8" fill="#ffffff" stroke="#6366f1" stroke-width="1.5"/>
      <text x="14" y="22" font-size="13" font-weight="500" fill="#0a0a0a">parallel-review-coordinator</text>
    </g>

    <text x="32" y="170" font-size="11" fill="#737373" font-style="italic">&#8627; 3 reviewers in parallel</text>

    <g transform="translate(20,180)">
      <rect width="250" height="30" rx="6" fill="#ffffff" stroke="#f59e0b" stroke-width="1.5"/>
      <text x="14" y="20" font-size="12" fill="#0a0a0a">Readability</text>
      <text x="236" y="20" text-anchor="end" font-size="11" fill="#737373">code-reviewer</text>

      <rect y="38" width="250" height="30" rx="6" fill="#ffffff" stroke="#f59e0b" stroke-width="1.5"/>
      <text x="14" y="58" font-size="12" fill="#0a0a0a">Performance</text>
      <text x="236" y="58" text-anchor="end" font-size="11" fill="#737373">code-reviewer</text>

      <rect y="76" width="250" height="30" rx="6" fill="#ffffff" stroke="#f59e0b" stroke-width="1.5"/>
      <text x="14" y="96" font-size="12" fill="#0a0a0a">Security</text>
      <text x="236" y="96" text-anchor="end" font-size="11" fill="#737373">code-reviewer</text>
    </g>

    <g transform="translate(20,310)">
      <text x="0" y="0" font-size="11" fill="#059669" font-weight="600">&#8805; 80 &#8594; auto-commit</text>
      <text x="135" y="0" font-size="11" fill="#d97706" font-weight="600">60&#8211;79 &#8594; fix &amp; retry</text>
    </g>
  </g>

  <g transform="translate(60,470)">
    <rect width="970" height="84" rx="10" fill="#faf5ff" stroke="#e9d5ff" stroke-width="1.5"/>
    <text x="20" y="26" font-size="11" font-weight="600" fill="#7c3aed" letter-spacing="2">CROSS-CUTTING &#183; ALWAYS ACTIVE</text>

    <text x="20" y="50" font-size="12" font-weight="600" fill="#525252">Skills (3)</text>
    <text x="86" y="50" font-size="12" fill="#525252">code-review-levels &#183; design-system-reference (20 styles) &#183; team-memory-protocol</text>

    <text x="20" y="72" font-size="12" font-weight="600" fill="#525252">Hooks (4+1)</text>
    <text x="100" y="72" font-size="12" fill="#525252">Dangerous Cmd Blocker &#183; Frontend Format &#183; Backend Pattern &#183; Pipeline Stop &#183; Stale Branch Detection</text>
  </g>

  <text x="550" y="595" text-anchor="middle" font-size="11" fill="#a3a3a3" font-style="italic">+ /review-pr &#8594; pr-reviewer (out-of-band GitHub PR review)  &#183;  Apache 2.0  &#183;  EN / KO / CN docs</text>
</svg>
